<svg xmlns="http://www.w3.org/2000/svg" viewBox="0 0 1104.38 1536"><defs><style>.cls-1{fill:#b61d00;}.cls-2{fill:#fff;}</style></defs><title>ec</title><g id="katman_2" data-name="katman 2"><g id="Layer_1" data-name="Layer 1"><path class="cls-1" d="M1104.38,552.19c0,503.43-552.19,983.81-552.19,983.81S0,1055.62,0,552.19C0,247.22,247.23,0,552.19,0S1104.38,247.22,1104.38,552.19Z"/><path class="cls-2" d="M314.13,595.4c3.68,218.76,143.39,308.84,305.16,308.84,115.81,0,185.67-20.22,246.33-46L893.2,974.1c-57,25.74-154.42,55.15-296,55.15-273.91,0-437.52-180.15-437.52-448.55S317.81,100.9,577,100.9c290.45,0,367.66,255.52,367.66,419.13,0,33.09-3.68,58.83-5.52,75.37ZM788.41,479.59c1.84-102.95-42.28-262.88-224.27-262.88-163.61,0-235.3,150.74-248.17,262.88Z"/></g></g></svg>